<?xml version="1.0" standalone="no"?>
<!DOCTYPE svg PUBLIC "-//W3C//DTD SVG 20010904//EN"
 "http://www.w3.org/TR/2001/REC-SVG-20010904/DTD/svg10.dtd">
<svg version="1.0" xmlns="http://www.w3.org/2000/svg"
 width="612.000000pt" height="408.000000pt" viewBox="0 0 612.000000 408.000000"
 preserveAspectRatio="xMidYMid meet">

<g transform="translate(0.000000,408.000000) scale(0.100000,-0.100000)"
fill="#000000" stroke="none">
<path d="M2815 3564 c-109 -17 -238 -53 -331 -93 -63 -28 -66 -30 -35 -31 18
0 74 15 125 34 98 37 263 71 392 81 110 8 315 -11 432 -40 53 -14 112 -25 132
-24 30 1 25 4 -40 26 -183 60 -466 80 -675 47z"/>
<path d="M2838 3483 c7 -3 16 -2 19 1 4 3 -2 6 -13 5 -11 0 -14 -3 -6 -6z"/>
<path d="M2875 3480 c4 -6 11 -8 16 -5 14 9 11 15 -7 15 -8 0 -12 -5 -9 -10z"/>
<path d="M3268 3483 c6 -2 18 -2 25 0 6 3 1 5 -13 5 -14 0 -19 -2 -12 -5z"/>
<path d="M2732 3468 c-30 -5 -52 -11 -50 -13 2 -2 36 0 76 2 46 4 69 9 60 14
-15 10 -15 10 -86 -3z"/>
<path d="M3694 3467 c-7 -11 -66 -16 -299 -26 -375 -15 -786 -37 -1050 -56
-115 -8 -236 -16 -267 -17 l-57 -3 24 -20 c13 -11 67 -56 119 -100 l96 -79
-23 -24 c-20 -21 -23 -37 -27 -150 -3 -76 -1 -134 5 -146 14 -28 73 -66 102
-66 19 0 23 -4 19 -22 -3 -13 -8 -177 -11 -364 -3 -188 -10 -354 -14 -370 -15
-56 -24 60 -10 136 9 52 9 79 0 113 -6 25 -11 58 -11 74 0 15 -9 43 -20 61
-23 38 -24 42 -7 42 28 0 57 90 37 115 -32 38 -100 3 -100 -52 0 -13 -8 -24
-21 -28 -15 -5 -17 -10 -9 -19 8 -10 4 -12 -17 -9 -27 4 -28 4 -8 -13 20 -16
20 -16 -2 -11 -29 7 -39 -8 -16 -22 16 -9 14 -10 -10 -11 -16 0 -26 -4 -22
-10 3 -5 2 -10 -3 -10 -18 0 0 -126 25 -174 8 -16 16 -47 18 -70 4 -52 8 -70
17 -76 13 -10 8 -153 -6 -167 -3 -4 -6 -24 -6 -45 0 -21 -4 -38 -9 -38 -10 0
-8 -57 2 -67 4 -3 2 -12 -3 -18 -22 -27 18 -38 123 -37 56 1 158 -3 226 -9
154 -13 155 -12 156 96 0 73 -1 75 -25 76 -24 2 -24 2 -2 6 22 4 139 113 121
113 -5 0 -9 7 -9 15 0 19 96 22 103 3 4 -10 6 -10 6 0 1 7 16 12 41 12 25 0
40 -5 40 -12 0 -9 4 -8 10 2 7 10 13 11 18 5 4 -6 27 -12 52 -14 25 -2 48 -5
52 -8 5 -2 8 0 8 6 0 5 -8 12 -17 14 -11 3 -7 5 10 6 15 0 27 -3 27 -9 0 -5 7
-10 15 -10 8 0 15 5 15 10 0 13 37 13 45 0 3 -5 17 -10 31 -10 19 0 25 -5 22
-17 -3 -18 -48 -32 -48 -16 0 4 -16 9 -35 10 l-34 3 22 -34 c17 -26 30 -35 57
-38 l35 -4 -32 -8 c-29 -7 -33 -13 -33 -40 0 -31 1 -31 18 -10 9 11 36 35 60
53 25 20 42 41 42 53 0 17 5 20 29 15 23 -5 30 -2 34 14 4 15 11 19 24 15 10
-3 45 5 78 19 l60 24 5 335 c4 276 7 334 18 327 10 -6 13 -37 11 -127 -1 -65
-1 -209 -1 -320 l2 -201 53 5 c39 3 63 -1 88 -14 19 -10 46 -17 62 -15 15 1
27 -2 27 -7 0 -6 -9 -8 -20 -5 -13 3 -20 0 -20 -8 0 -29 16 -40 46 -34 22 5
25 4 14 -4 -8 -6 -22 -11 -30 -11 -11 0 -16 -13 -17 -45 -1 -24 -13 -71 -26
-104 l-24 -59 23 -13 c20 -10 27 -8 58 19 43 38 88 47 169 37 104 -14 247 -10
322 8 118 29 367 25 337 -5 -15 -15 -231 -77 -237 -68 -3 5 1 11 7 13 9 4 8 5
-2 6 -19 0 -59 -17 -42 -18 30 -2 7 -21 -42 -35 -62 -18 -120 -22 -96 -6 17
11 10 13 -13 4 -13 -5 -10 -14 14 -52 16 -25 32 -60 35 -79 5 -28 9 -32 29
-27 26 6 43 -12 26 -29 -9 -9 -14 -8 -21 3 -14 22 -21 7 -25 -50 -2 -29 -12
-74 -21 -102 -18 -54 -76 -128 -102 -128 -15 0 -106 -25 -147 -40 -15 -5 -3
-10 45 -19 36 -6 88 -18 115 -26 l50 -15 -77 5 c-351 22 -552 27 -858 22 -302
-5 -579 -23 -675 -43 -24 -5 -18 2 31 34 34 22 70 54 80 70 16 29 21 30 80 30
48 0 72 5 99 22 19 12 35 27 35 33 0 6 10 1 23 -11 52 -49 75 -52 405 -52 301
0 310 1 353 23 l45 22 33 -22 c66 -44 211 -54 293 -20 168 71 199 304 56 431
-118 107 -298 101 -322 -11 l-8 -40 -34 36 c-18 21 -49 46 -68 56 -38 21 -43
29 -25 41 6 3 22 30 35 58 31 66 32 133 2 171 -20 25 -25 27 -74 22 -67 -7
-208 -64 -289 -117 -70 -45 -153 -129 -179 -178 -22 -44 -20 -81 9 -136 l25
-47 -27 3 -28 3 -5 180 c-3 99 -9 187 -13 196 -11 23 -55 41 -81 34 -11 -4
-37 -13 -57 -22 -33 -13 -39 -13 -67 1 -57 29 -119 14 -161 -40 -23 -29 -29
-110 -11 -145 6 -11 7 -19 1 -19 -18 0 -41 -69 -41 -125 l0 -58 -122 8 c-119
6 -124 7 -146 35 -28 36 -80 53 -157 54 -122 0 -226 -61 -271 -158 -61 -130
-3 -322 117 -393 16 -10 29 -23 29 -30 0 -22 -69 20 -116 69 -51 53 -78 105
-94 181 -10 50 -14 57 -36 57 -30 0 -31 -8 -1 -19 19 -7 15 -10 -25 -16 l-46
-7 16 -46 c8 -26 23 -60 33 -77 9 -16 24 -54 34 -82 l17 -53 44 0 c28 0 43 -4
39 -10 -4 -6 14 -10 47 -11 l53 -1 -60 -9 c-33 -5 -81 -19 -107 -32 -47 -24
-60 -23 -35 2 10 10 9 11 -5 6 -22 -9 -24 8 -3 25 13 10 12 17 -7 53 -11 23
-32 71 -45 107 -13 36 -29 77 -34 91 -11 29 -55 43 -85 26 -12 -7 -15 -6 -10
2 14 22 85 50 147 58 l63 8 7 41 c16 88 73 171 159 227 25 16 37 27 27 23 -10
-3 -30 -6 -43 -6 -13 0 -23 -3 -23 -7 3 -21 -4 -23 -33 -6 -18 10 -36 23 -40
28 -4 6 -8 0 -8 -12 0 -12 6 -23 13 -26 7 -3 0 -9 -15 -16 -15 -6 -36 -8 -45
-4 -35 13 -39 43 -6 43 11 0 13 -3 5 -12 -8 -10 -4 -13 14 -13 13 0 24 0 24 1
0 1 -9 11 -20 24 -11 13 -20 19 -20 14 0 -5 -4 -3 -9 5 -8 12 -12 12 -25 -2
-14 -14 -19 -14 -44 -1 -15 7 -36 14 -48 14 -24 0 -59 34 -50 48 3 6 -12 7
-39 5 -24 -3 -56 -2 -71 1 l-27 7 29 15 c32 17 74 21 117 10 19 -4 26 -3 22 4
-3 6 3 10 15 10 12 0 18 -4 15 -11 -5 -7 5 -8 32 -2 44 9 210 9 269 0 l41 -7
8 113 c9 129 9 143 2 177 -8 35 -36 108 -37 93 0 -9 -21 -13 -71 -13 -40 0
-68 4 -65 9 4 5 0 12 -6 14 -14 6 46 10 103 7 34 -1 37 1 43 34 4 19 2 43 -3
53 -6 10 -16 41 -24 70 -14 51 -14 53 14 102 32 55 36 69 17 53 -15 -11 -78
-4 -78 9 0 5 5 9 10 9 6 0 10 11 10 24 0 18 5 23 23 21 12 -1 28 -3 35 -4 7 0
10 -5 7 -11 -3 -5 1 -10 10 -10 14 0 14 3 0 28 -17 32 -34 52 -58 71 -15 12
-17 12 -11 -2 3 -8 12 -18 20 -21 8 -3 14 -11 14 -17 0 -7 -10 -5 -26 6 -14 9
-32 14 -40 11 -20 -8 -17 8 6 29 23 21 16 42 -8 23 -13 -11 -14 -11 -7 2 7 12
5 12 -11 -1 -10 -9 -25 -14 -31 -12 -7 3 -13 0 -13 -6 0 -6 -4 -11 -10 -11 -5
0 -10 7 -10 15 0 8 -5 15 -11 15 -5 0 -7 -4 -4 -10 3 -5 1 -10 -5 -10 -6 0
-13 7 -16 15 -8 20 -24 19 -40 -2 -11 -15 -12 -12 -2 22 18 68 103 226 164
306 64 83 150 179 162 179 4 0 17 9 30 18 21 16 22 20 8 31 -18 15 -40 5 -32
-16 4 -8 2 -11 -5 -7 -6 3 -40 -22 -76 -57 -134 -131 -246 -311 -293 -470 -12
-40 -29 -84 -36 -96 -10 -16 -11 -23 -3 -23 8 0 7 -6 -3 -17 -10 -12 -14 -29
-11 -50 4 -23 -1 -38 -16 -54 -18 -19 -19 -25 -8 -38 17 -19 16 -106 -1 -123
-7 -7 -12 -22 -12 -35 0 -13 -4 -23 -10 -23 -15 0 -12 205 5 303 44 251 161
473 348 661 68 68 95 102 88 109 -7 7 -28 -5 -66 -37 -110 -95 -214 -230 -289
-376 -49 -96 -116 -273 -116 -308 0 -11 -8 -13 -30 -8 -19 3 -29 2 -25 -4 3
-6 14 -10 24 -10 10 0 18 -7 18 -15 0 -11 -4 -12 -11 -5 -5 5 -17 10 -25 10
-13 0 -13 -2 -2 -9 9 -6 10 -11 2 -15 -6 -4 -9 -12 -6 -17 4 -5 -1 -9 -10 -9
-9 0 -14 3 -11 8 2 4 -11 8 -29 8 -35 0 -35 0 -20 -58 6 -22 4 -28 -10 -28 -9
0 -14 -4 -11 -9 3 -5 -1 -12 -10 -15 -24 -9 -36 -7 -28 6 4 7 3 8 -4 4 -18
-11 -14 -27 13 -52 22 -20 23 -25 10 -38 -13 -13 -13 -16 0 -30 9 -9 24 -20
33 -25 16 -9 16 -12 -1 -40 l-18 -30 73 -4 c55 -3 51 -4 -20 -3 -69 2 -92 -1
-92 -11 0 -7 4 -13 9 -13 5 0 12 -8 15 -17 3 -10 16 -19 28 -20 13 -1 45 -5
73 -9 38 -5 45 -9 30 -15 -11 -4 -38 -8 -60 -9 l-40 -1 48 -15 c31 -10 47 -20
48 -32 4 -84 3 -110 -5 -105 -5 4 -7 -1 -3 -10 5 -12 -2 -18 -27 -22 -18 -4
-44 -5 -57 -3 -23 3 -24 5 -24 101 0 73 -3 97 -13 97 -7 0 -10 5 -6 12 5 7 3
8 -6 3 -10 -6 -11 -38 -8 -132 5 -132 7 -125 -40 -139 -16 -5 -1 -36 38 -79
15 -16 32 -51 39 -77 15 -62 70 -180 113 -244 27 -40 34 -58 30 -86 -3 -26 3
-48 22 -80 14 -25 26 -48 26 -51 0 -10 -130 -47 -166 -47 -37 0 -43 -10 -19
-30 12 -10 30 -10 82 -2 37 6 69 9 71 7 7 -7 -46 -25 -71 -25 -48 0 -49 -15
-6 -63 l41 -47 -26 -47 c-15 -25 -24 -48 -22 -51 3 -2 41 2 86 10 44 8 80 12
80 8 0 -11 -80 -32 -142 -38 -77 -7 -95 -27 -32 -36 52 -7 140 5 254 34 41 10
107 21 146 24 38 3 116 15 171 26 l101 21 50 -31 c127 -78 314 -148 487 -182
138 -27 371 -29 515 -5 184 31 394 105 532 188 l67 40 78 -20 c43 -11 112 -25
153 -31 41 -7 116 -22 165 -35 84 -21 164 -30 244 -27 28 2 32 4 21 17 -7 8
-24 15 -39 15 -37 0 -141 26 -153 38 -6 6 20 4 63 -4 105 -20 103 -21 69 39
l-30 53 45 44 c25 24 45 47 45 51 0 3 -23 9 -52 12 -28 4 -56 11 -62 17 -13
13 -5 13 68 -1 43 -8 61 -7 72 2 22 18 17 29 -14 29 -30 0 -124 25 -154 41
-17 9 -16 13 7 59 14 27 25 63 25 79 0 18 15 54 36 88 52 80 94 176 109 250
10 49 22 74 51 105 l37 42 -26 9 c-15 5 -25 13 -21 18 3 5 0 9 -5 9 -6 0 -11
11 -11 24 0 26 -16 36 -61 36 -19 0 -29 5 -29 15 0 8 5 15 11 15 6 0 8 8 4 19
-5 17 -2 19 25 16 28 -4 35 3 31 28 0 4 3 7 9 7 5 0 10 -4 10 -9 0 -7 27 -8
50 -2 8 2 6 131 -2 131 -5 0 -8 6 -8 14 0 9 -16 17 -41 21 -22 4 -38 10 -35
13 3 3 -1 13 -10 23 -15 17 -14 18 12 24 16 3 35 10 43 14 18 9 23 41 9 58 -7
9 -7 13 1 13 6 0 11 7 11 15 0 8 -7 15 -15 15 -8 0 -15 5 -15 12 0 6 -3 9 -6
5 -3 -3 -12 -1 -19 6 -10 9 -9 14 4 25 12 10 13 15 4 18 -7 3 -13 13 -14 22 0
11 -2 12 -6 5 -3 -8 -14 -11 -29 -7 -15 4 -24 2 -24 -5 0 -6 -5 -11 -11 -11
-5 0 -7 6 -3 13 4 6 4 9 -1 5 -12 -11 -65 31 -65 50 1 15 3 14 17 -3 15 -20
15 -20 10 3 -3 12 0 25 6 30 7 4 13 15 13 25 2 15 -4 18 -29 15 -30 -3 -30 -2
-57 82 -72 229 -185 409 -353 566 -76 71 -216 174 -242 178 -19 3 -76 57 -70
66 2 4 -9 19 -24 34 -24 23 -31 25 -37 13z m36 -22 c13 -14 21 -25 18 -25 -2
0 -15 11 -28 25 -13 14 -21 25 -18 25 2 0 15 -11 28 -25z m65 -95 c33 -33 57
-60 54 -60 -2 0 -31 27 -64 60 -33 33 -57 60 -54 60 2 0 31 -27 64 -60z m204
-160 c177 -161 299 -342 365 -543 20 -59 36 -114 36 -123 0 -8 7 -29 16 -45
13 -27 14 -67 7 -322 l-8 -292 -5 303 -5 304 -50 18 c-27 10 -58 21 -67 25
-17 7 -18 -2 -18 -96 0 -57 4 -99 8 -94 9 12 44 16 36 4 -3 -5 1 -9 10 -9 8 0
16 4 18 9 2 4 12 0 22 -10 17 -17 18 -19 3 -19 -9 0 -17 -4 -17 -10 0 -5 5 -9
11 -7 6 1 14 -4 16 -11 4 -10 -8 -12 -51 -10 l-56 4 0 -57 0 -56 45 2 c48 2
81 -10 55 -19 -8 -3 -33 -10 -55 -15 l-40 -9 53 -1 c69 -1 67 -21 -2 -21 -44
0 -55 -4 -59 -17 -3 -10 -5 84 -6 209 -1 249 5 227 -63 242 -16 4 -28 11 -28
16 0 6 -12 8 -27 4 -22 -4 -25 -3 -13 6 12 8 6 9 -25 5 -29 -4 -35 -3 -20 4
18 9 18 10 2 10 -11 1 -21 10 -24 21 -6 24 -8 24 -43 4 -26 -16 -28 -16 -49 5
-17 17 -33 21 -86 21 -62 0 -65 1 -65 25 0 13 -5 36 -12 50 -14 31 -11 34 48
49 59 15 62 23 63 162 1 89 -2 107 -23 147 l-24 45 79 7 c43 4 79 11 79 16 0
5 -48 60 -107 121 -108 113 -99 107 76 -52z m-1344 133 c-145 -11 -163 -15
-169 -31 -3 -9 -9 -24 -13 -32 -5 -13 -4 -13 10 -1 10 8 27 11 42 7 18 -5 25
-2 25 8 0 9 9 20 20 26 19 10 20 8 19 -32 -1 -39 -2 -40 -8 -13 -6 27 -7 28
-13 8 -4 -17 -15 -22 -44 -25 -45 -4 -59 -27 -17 -30 15 0 -15 -4 -67 -8 -66
-5 -97 -4 -102 4 -4 6 -8 32 -8 58 0 55 1 56 120 61 102 4 255 4 205 0z m692
-75 c-2 -13 -4 -3 -4 22 0 25 2 35 4 23 2 -13 2 -33 0 -45z m-706 12 c5 0 12
7 15 15 4 8 10 15 15 15 21 0 0 -40 -22 -43 -8 -2 -19 -6 -26 -10 -18 -11 -25
10 -11 35 10 20 13 21 16 6 2 -10 8 -18 13 -18z m2 -47 c-13 -2 -35 -2 -50 0
-16 2 -5 4 22 4 28 0 40 -2 28 -4z m683 -68 c-7 -19 7 -19 45 1 17 8 33 13 36
11 6 -6 -73 -52 -107 -62 -14 -4 -40 -21 -59 -37 -18 -16 -48 -36 -65 -45 -33
-15 -62 -50 -52 -61 3 -3 27 13 53 35 27 22 57 44 68 50 20 10 95 16 95 8 0
-3 -16 -23 -36 -45 -36 -40 -37 -55 -2 -23 10 9 21 14 24 10 11 -11 -75 -60
-97 -54 -12 3 -31 2 -44 -3 -14 -5 -26 -5 -33 2 -7 7 -17 6 -31 -2 -28 -14
-44 -4 -38 26 5 28 -5 31 -24 8 -30 -37 -109 -59 -109 -30 0 23 46 72 85 90
40 19 59 13 52 -16 -7 -27 1 -21 57 39 l48 53 -28 11 c-45 17 -94 23 -94 11 0
-6 -14 -24 -31 -41 -30 -31 -69 -42 -69 -19 0 15 30 48 44 48 6 0 0 -9 -14
-20 -14 -10 -21 -22 -17 -26 4 -4 19 1 34 12 32 24 43 47 17 37 -12 -4 -15 -3
-10 6 5 7 -14 1 -41 -12 -63 -32 -145 -120 -141 -150 5 -37 43 -34 86 9 43 44
29 60 -19 20 -37 -31 -54 -34 -39 -6 16 30 77 57 92 42 29 -29 -64 -112 -125
-112 -24 0 -57 22 -57 39 0 4 13 28 30 54 29 46 92 100 134 113 21 7 20 8 -4
15 -22 7 -21 8 10 8 19 0 73 4 120 7 64 5 94 3 121 -9 32 -13 38 -13 70 4 43
23 73 25 65 4z m-459 -11 c-3 -3 -77 -10 -164 -15 -142 -8 -159 -11 -172 -29
-16 -23 -36 -27 -27 -5 9 24 -17 18 -60 -14 -70 -50 -117 -121 -100 -149 12
-20 64 -20 161 -1 116 22 168 23 210 5 l30 -14 -42 0 c-22 0 -46 -3 -52 -7 -6
-3 -27 -1 -46 5 -27 9 -52 8 -118 -4 -100 -19 -169 -20 -185 -4 -26 26 -7 92
40 135 12 12 43 33 68 47 29 17 38 26 26 26 -11 0 -16 3 -13 7 4 4 76 10 160
13 224 10 291 11 284 4z m762 -47 c0 -21 -1 -21 -9 -2 -7 18 -9 17 -23 -15
-23 -54 -30 -105 -17 -129 10 -19 17 -21 58 -16 40 6 49 4 59 -13 10 -16 9
-19 -5 -18 -9 0 -23 6 -30 13 -8 8 -22 9 -45 2 -28 -8 -35 -6 -51 13 -29 37
-13 140 30 182 19 20 34 12 33 -17z m-1281 16 c-15 -2 -42 -2 -60 0 -18 2 -6
4 27 4 33 0 48 -2 33 -4z m491 -44 c-8 -5 -21 -9 -29 -9 -12 1 -11 4 4 15 10
8 23 12 29 8 5 -3 3 -9 -4 -14z m-194 -14 c0 -10 -6 -20 -14 -23 -10 -3 -12 0
-8 12 5 14 3 15 -13 6 -19 -10 -50 -48 -50 -62 0 -19 31 -4 89 42 52 41 69 50
103 50 l40 0 -34 -42 -33 -43 30 18 c28 17 28 16 -5 -13 -25 -22 -42 -30 -59
-27 -14 3 -33 0 -43 -7 -15 -9 -21 -8 -28 3 -7 12 -13 13 -35 3 -14 -7 -35
-12 -47 -12 -17 0 -20 5 -16 30 3 16 2 28 0 25 -3 -2 -12 0 -22 5 -13 7 -22 4
-35 -10 -25 -28 -11 -36 22 -15 27 18 28 18 13 0 -22 -26 -72 -46 -87 -33 -20
16 9 60 56 87 44 24 77 22 67 -4 -7 -20 -6 -19 45 10 49 27 64 27 64 0z m1187
-2 c9 -8 22 -12 29 -7 9 5 10 2 6 -10 -6 -14 -3 -17 10 -12 10 3 5 -5 -11 -18
-29 -24 -31 -59 -4 -54 11 3 15 -30 9 -85 -1 -4 -9 -3 -20 2 -10 6 -21 7 -25
4 -13 -13 -12 54 2 102 9 31 9 43 -2 60 -31 47 -70 9 -82 -79 -6 -41 -5 -45
15 -43 11 1 21 5 21 8 0 21 21 59 30 54 6 -4 4 -12 -6 -22 -9 -9 -14 -26 -11
-40 5 -27 -8 -40 -17 -17 -5 14 -9 14 -22 3 -24 -20 -36 7 -28 61 3 25 6 53 6
64 -1 10 2 16 5 12 3 -3 14 6 25 19 20 25 38 25 70 -2z m-200 -1 c-7 -2 -10
-8 -6 -13 3 -5 0 -9 -6 -9 -6 0 -9 -10 -8 -22 2 -13 -1 -23 -7 -23 -14 0 -10
52 5 70 7 8 17 12 23 8 8 -5 7 -8 -1 -11z m70 -4 c15 3 17 -3 13 -37 -5 -54
-12 -64 -35 -51 -11 6 -25 9 -32 8 -20 -4 -22 51 -2 73 9 10 22 15 28 12 6 -4
19 -6 28 -5z m66 -88 c-14 -22 -24 -19 -15 5 4 8 11 15 17 15 6 0 6 -7 -2 -20z
m-321 -52 c-2 -13 -4 -3 -4 22 0 25 2 35 4 23 2 -13 2 -33 0 -45z m-37 -153
c0 -8 -4 -15 -10 -15 -5 0 -7 7 -4 15 4 8 8 15 10 15 2 0 4 -7 4 -15z m16
-137 c-3 -57 -10 -130 -14 -163 -8 -50 -9 -32 -11 103 -1 143 1 162 15 162 14
0 16 -12 10 -102z m-824 64 c-29 -9 -28 -28 1 -25 20 3 20 2 4 -8 -11 -6 -30
-8 -45 -3 -15 4 -46 6 -69 5 -26 -2 -43 2 -43 8 0 6 12 11 28 12 46 1 72 5 79
12 3 4 20 7 37 6 27 -1 28 -2 8 -7z m348 -2 c12 -8 9 -10 -13 -10 -16 0 -26 4
-22 10 8 12 16 12 35 0z m295 0 c4 -6 -6 -10 -22 -10 -22 0 -25 2 -13 10 19
12 27 12 35 0z m424 -6 c2 -1 4 -84 5 -183 l1 -181 -42 0 -43 0 0 189 0 190
38 -6 c20 -3 39 -7 41 -9z m-302 -10 c-3 -3 -12 -4 -19 -1 -8 3 -5 6 6 6 11 1
17 -2 13 -5z m-439 -19 c3 -3 -18 -5 -46 -5 -29 0 -52 4 -52 9 0 10 89 6 98
-4z m135 8 c-7 -2 -21 -2 -30 0 -10 3 -4 5 12 5 17 0 24 -2 18 -5z m-558 -22
c3 -5 0 -13 -6 -17 -8 -5 -9 -3 -4 6 5 9 2 10 -14 5 -12 -4 -21 -2 -21 4 0 13
37 15 45 2z m125 -17 c0 -10 -5 -14 -15 -10 -8 3 -26 0 -40 -6 -28 -13 -40 -6
-32 17 9 22 87 21 87 -1z m260 -46 c43 -3 45 -5 48 -35 l3 -33 -55 1 -56 2 0
46 c0 25 4 41 8 34 4 -6 28 -13 52 -15z m-1043 6 c-3 -3 -12 -4 -19 -1 -8 3
-5 6 6 6 11 1 17 -2 13 -5z m951 -60 c-6 -31 -23 -18 -26 21 -3 39 -3 40 13
17 9 -12 15 -29 13 -38z m1180 49 c-10 -2 -26 -2 -35 0 -10 3 -2 5 17 5 19 0
27 -2 18 -5z m-1323 -17 c18 -13 13 -14 -48 -18 -65 -3 -66 -3 -45 14 28 21
68 23 93 4z m1585 -305 c0 -147 -4 -260 -8 -253 -13 20 -57 8 -60 -16 -3 -19
2 -22 30 -23 31 -1 31 -1 8 -8 -14 -4 -55 -11 -92 -14 l-68 -6 0 307 0 307 95
-14 95 -15 0 -265z m-1717 272 c-7 -2 -21 -2 -30 0 -10 3 -4 5 12 5 17 0 24
-2 18 -5z m90 -20 c-35 -2 -91 -2 -125 0 -35 2 -7 3 62 3 69 0 97 -1 63 -3z
m-154 -84 l1 -26 105 5 c74 3 105 1 105 -7 0 -7 -37 -11 -115 -11 l-115 0 1
58 c1 43 3 51 9 32 4 -14 8 -37 9 -51z m423 51 c4 -27 23 -31 23 -6 0 35 22
27 28 -10 7 -44 1 -59 -18 -44 -8 7 -18 9 -24 6 -5 -4 -11 4 -13 16 -2 17 -9
22 -26 20 -25 -4 -27 19 -2 30 24 11 28 9 32 -12z m-215 4 c-3 -3 -12 -4 -19
-1 -8 3 -5 6 6 6 11 1 17 -2 13 -5z m103 -9 c0 -8 -2 -15 -4 -15 -2 0 -6 7
-10 15 -3 8 -1 15 4 15 6 0 10 -7 10 -15z m1547 -1 c-3 -3 -12 -4 -19 -1 -8 3
-5 6 6 6 11 1 17 -2 13 -5z m-1817 -34 c0 -11 -7 -20 -15 -20 -8 0 -15 9 -15
20 0 11 7 20 15 20 8 0 15 -9 15 -20z m60 0 c0 -11 -7 -20 -15 -20 -8 0 -15 9
-15 20 0 11 7 20 15 20 8 0 15 -9 15 -20z m50 0 c0 -11 -7 -20 -15 -20 -8 0
-15 9 -15 20 0 11 7 20 15 20 8 0 15 -9 15 -20z m1366 7 c4 -4 -24 -7 -62 -6
-40 1 -59 4 -46 7 30 9 99 8 108 -1z m365 -17 c21 0 39 -4 39 -10 0 -5 -7 -10
-16 -10 -8 0 -12 -4 -9 -10 4 -6 -10 -10 -34 -10 -39 0 -60 19 -23 21 16 1 16
2 0 6 -19 5 -24 24 -10 37 4 4 8 1 10 -8 3 -11 15 -16 43 -16z m-2731 10 c0
-5 -9 -10 -21 -10 -11 0 -17 5 -14 10 3 6 13 10 21 10 8 0 14 -4 14 -10z m400
-5 c0 -8 -7 -15 -16 -15 -14 0 -14 3 -4 15 7 8 14 15 16 15 2 0 4 -7 4 -15z
m658 3 c-3 -7 -12 -14 -21 -16 -12 -2 -15 1 -11 12 7 19 38 22 32 4z m1669 6
c-3 -3 -12 -4 -19 -1 -8 3 -5 6 6 6 11 1 17 -2 13 -5z m-1482 -14 c-27 -12
-35 -12 -35 0 0 6 12 10 28 9 24 0 25 -1 7 -9z m1660 -11 c12 -19 -5 -23 -22
-6 -16 16 -16 17 -1 17 9 0 20 -5 23 -11z m-2475 -3 c0 -3 -4 -8 -10 -11 -5
-3 -10 -1 -10 4 0 6 5 11 10 11 6 0 10 -2 10 -4z m727 -18 c-1 -13 -6 -26 -12
-30 -6 -5 -5 -8 3 -8 6 0 12 -7 12 -16 0 -9 -6 -14 -12 -12 -17 6 -28 64 -15
77 17 17 27 13 24 -11z m1210 6 c-3 -3 -12 -4 -19 -1 -8 3 -5 6 6 6 11 1 17
-2 13 -5z m-1117 -9 c0 -2 -9 -9 -20 -15 -12 -6 -20 -7 -20 -1 0 5 8 12 18 14
9 3 18 5 20 6 1 0 2 -1 2 -4z m430 -17 c0 -5 -14 -8 -31 -8 -16 0 -28 3 -26 8
3 4 17 7 31 7 14 0 26 -3 26 -7z m40 3 c0 -5 -5 -11 -12 -13 -23 -8 3 -28 28
-22 14 4 24 2 24 -5 0 -6 -6 -11 -12 -11 -7 0 -23 -3 -35 -6 -20 -6 -23 -3
-23 23 0 16 3 33 7 36 9 10 23 9 23 -2z m34 -6 c-4 -8 -10 -15 -15 -15 -5 0
-9 7 -9 15 0 8 7 15 15 15 9 0 12 -6 9 -15z m-906 -56 l-5 -29 103 0 103 0 4
48 3 47 2 -52 2 -53 -115 0 -115 0 0 53 c1 42 3 48 11 34 6 -11 9 -32 7 -48z
m690 37 c2 -30 -25 -39 -50 -18 -16 13 -18 13 -18 -1 0 -23 -13 -21 -28 4 -12
19 -11 20 15 19 15 -1 37 -2 48 -1 17 1 17 3 5 11 -12 8 -11 10 5 10 15 0 21
-7 23 -24z m-598 -23 c0 -7 -7 -13 -15 -13 -15 0 -21 31 -8 43 8 8 23 -12 23
-30z m425 27 c4 -7 12 -7 24 0 20 10 31 4 31 -18 0 -11 -8 -13 -30 -9 -17 4
-32 2 -36 -5 -4 -7 -10 -5 -16 6 -15 26 11 51 27 26z m242 -6 c8 -21 -16 -35
-40 -23 -14 8 -16 13 -6 25 15 19 38 18 46 -2z m-720 -8 c-3 -8 -1 -17 6 -20
7 -2 2 -5 -10 -5 -17 -1 -23 5 -23 19 0 12 7 20 16 20 10 0 14 -6 11 -14z m96
8 c3 -4 -1 -13 -9 -21 -18 -18 -27 -13 -18 11 6 17 16 20 27 10z m47 -14 c0
-11 -7 -20 -15 -20 -15 0 -21 21 -8 33 12 13 23 7 23 -13z m1934 11 c3 -5 -1
-11 -9 -14 -9 -4 -12 -1 -8 9 6 16 10 17 17 5z m-2401 -8 c-7 -2 -21 -2 -30 0
-10 3 -4 5 12 5 17 0 24 -2 18 -5z m1117 -8 c0 -9 -9 -15 -25 -15 -16 0 -25 6
-25 15 0 9 9 15 25 15 16 0 25 -6 25 -15z m-360 -5 c0 -5 -4 -10 -10 -10 -5 0
-10 5 -10 10 0 6 5 10 10 10 6 0 10 -4 10 -10z m477 -12 c-3 -8 -6 -5 -6 6 -1
11 2 17 5 13 3 -3 4 -12 1 -19z m550 15 c-20 -2 -52 -2 -70 0 -17 2 0 4 38 4
39 0 53 -2 32 -4z m-1776 -31 c-18 -2 -37 0 -42 5 -5 5 11 6 34 3 41 -4 41 -5
8 -8z m1027 -9 c-93 -2 -243 -2 -335 0 -93 1 -17 3 167 3 184 0 260 -2 168 -3z
m-1023 -23 c18 -8 18 -9 -5 -9 -14 0 -32 4 -40 9 -12 8 -12 10 5 9 11 0 29 -4
40 -9z m560 0 c4 -7 13 -7 26 0 15 9 21 7 26 -6 7 -20 -17 -37 -33 -23 -8 7
-14 6 -19 -1 -11 -18 -25 -11 -25 15 0 25 14 33 25 15z m102 -6 c8 -21 -13
-42 -28 -27 -13 13 -5 43 11 43 6 0 13 -7 17 -16z m48 6 c10 -16 -16 -43 -28
-31 -11 11 -2 41 12 41 5 0 13 -5 16 -10z m242 -3 c47 3 75 -8 59 -24 -9 -9
-157 -10 -162 -1 -3 5 -14 3 -26 -3 -14 -8 -23 -8 -31 0 -7 7 -16 7 -30 0 -13
-7 -22 -8 -29 -1 -20 20 3 31 58 29 30 -2 60 0 66 4 7 4 19 4 27 0 9 -4 39 -6
68 -4z m1176 -16 c4 10 6 9 6 -3 1 -10 5 -18 10 -18 5 0 8 8 7 17 0 10 7 18
19 20 17 2 18 2 2 -5 -16 -7 -16 -8 3 -22 31 -23 24 -30 -29 -30 l-49 0 0 37
c0 36 0 36 13 14 9 -18 14 -20 18 -10z m-1756 -79 l102 -3 4 53 3 53 2 -57 2
-58 -115 0 -115 0 2 58 1 57 6 -50 6 -50 102 -3z m1148 77 c4 -13 2 -25 -5
-29 -16 -10 -58 0 -64 16 -3 8 0 11 10 7 10 -4 12 0 8 11 -5 12 0 16 19 16 17
0 28 -7 32 -21z m-415 1 c0 -15 -27 -23 -47 -15 -16 7 -15 9 7 15 36 11 40 11
40 0z m70 0 c8 -5 11 -12 7 -17 -5 -4 -12 -1 -17 7 -7 10 -10 11 -10 3 0 -7
-9 -13 -20 -13 -37 0 -23 20 20 29 3 0 12 -3 20 -9z m-1177 -17 c-7 -2 -19 -2
-25 0 -7 3 -2 5 12 5 14 0 19 -2 13 -5z m1775 0 c-21 -2 -55 -2 -75 0 -21 2
-4 4 37 4 41 0 58 -2 38 -4z m-1165 -46 c-2 -4 -3 -11 -3 -17 0 -5 -9 -10 -19
-10 -22 0 -35 15 -26 30 6 10 52 7 48 -3z m65 -10 c2 -11 -3 -17 -17 -17 -22
0 -35 15 -27 29 9 15 41 6 44 -12z m56 17 c22 -8 20 -31 -3 -37 -23 -6 -42 10
-34 29 6 15 13 17 37 8z m142 -4 c9 0 13 -5 9 -12 -4 -7 0 -5 8 5 16 19 42 24
31 5 -5 -8 -2 -9 9 -5 9 3 19 2 22 -3 4 -6 19 -10 36 -10 29 0 40 -14 17 -22
-11 -4 -109 -2 -188 3 -8 0 -24 -1 -35 -3 -14 -2 -20 3 -20 17 0 16 6 20 33
19 17 -1 32 3 32 8 0 6 7 7 16 4 9 -3 22 -6 30 -6z m143 -6 c2 -2 -10 -4 -27
-4 -18 0 -32 5 -32 10 0 9 47 4 59 -6z m171 4 c-1 -30 -20 -41 -70 -43 -40 -2
-53 2 -60 16 -19 34 -11 39 60 39 49 0 70 -4 70 -12z m375 -34 c3 -20 4 -39 1
-42 -3 -3 -6 0 -6 7 0 9 -9 11 -31 6 -22 -5 -34 -3 -40 6 -11 17 -12 48 -1 34
4 -5 20 -11 36 -13 26 -3 27 -2 12 13 -21 21 -20 25 3 25 14 0 21 -10 26 -36z
m-1968 20 c-3 -3 -12 -4 -19 -1 -8 3 -5 6 6 6 11 1 17 -2 13 -5z m2198 -49 c6
-2 -11 -4 -37 -4 -27 -1 -48 3 -48 7 0 7 62 5 85 -3z m-1041 -31 c12 -31 7
-44 -16 -40 -31 4 -39 56 -10 56 11 0 23 -7 26 -16z m56 -8 c0 -23 -22 -41
-34 -29 -3 4 -6 17 -6 30 0 16 6 23 20 23 14 0 20 -7 20 -24z m60 -1 c0 -14
-7 -28 -15 -32 -19 -7 -20 -5 -29 30 -6 24 -4 27 19 27 20 0 25 -5 25 -25z
m50 1 c0 -23 -22 -41 -34 -29 -3 4 -6 17 -6 30 0 16 6 23 20 23 14 0 20 -7 20
-24z m48 -9 c3 -22 -1 -27 -17 -27 -17 0 -21 6 -21 31 0 24 4 30 18 27 10 -2
18 -14 20 -31z m50 0 c3 -23 0 -28 -15 -25 -11 2 -19 14 -21 31 -3 23 0 28 15
25 11 -2 19 -14 21 -31z m94 12 c-6 -25 -21 -33 -37 -19 -25 20 -18 39 13 35
16 -2 26 -8 24 -16z m-502 -4 c0 -8 -7 -15 -15 -15 -8 0 -15 7 -15 15 0 8 7
15 15 15 8 0 15 -7 15 -15z m63 0 c1 -5 -6 -11 -15 -13 -11 -2 -18 3 -18 13 0
17 30 18 33 0z m511 0 c-7 -16 -14 -18 -38 -9 -26 10 -18 24 14 24 22 0 28 -4
24 -15z m-1515 0 c-8 -7 -108 -9 -116 -2 -3 4 22 7 57 7 35 0 61 -2 59 -5z
m188 -2 c-20 -2 -52 -2 -70 0 -17 2 0 4 38 4 39 0 53 -2 32 -4z m513 -1 c0 -8
-49 -32 -63 -32 -4 0 -5 5 -2 10 3 6 0 10 -9 10 -8 0 -17 -6 -19 -12 -3 -7 -6
-3 -6 9 -1 20 4 22 49 21 28 0 50 -3 50 -6z m120 -8 c0 -12 -5 -14 -17 -9 -23
10 -43 10 -70 1 -17 -5 -23 -3 -23 8 0 13 12 16 55 16 44 0 55 -3 55 -16z
m1078 -1 c-16 -2 -40 -2 -55 0 -16 2 -3 4 27 4 30 0 43 -2 28 -4z m-1941 -19
c4 -11 -1 -22 -12 -30 -25 -18 -33 -18 -31 2 0 9 -7 18 -17 20 -11 1 -22 6
-25 10 -4 4 5 4 21 2 15 -3 30 -1 33 3 8 14 24 10 31 -7z m163 6 c8 -5 11 -12
8 -16 -10 -9 -38 3 -38 16 0 12 10 13 30 0z m66 -27 c1 -18 -4 -23 -22 -23
-12 0 -31 -3 -41 -6 -15 -4 -14 -3 2 8 12 7 19 21 17 31 -3 15 1 18 20 15 16
-2 23 -10 24 -25z m2322 0 c-16 -2 -40 -2 -55 0 -16 2 -3 4 27 4 30 0 43 -2
28 -4z m-18 -23 c3 -1 8 -2 13 -1 4 0 7 -3 7 -9 0 -5 -18 -10 -40 -10 -29 0
-40 4 -40 15 0 12 7 14 28 11 15 -2 29 -5 32 -6z m-1055 -10 c-3 -5 -10 -10
-16 -10 -5 0 -9 5 -9 10 0 6 7 10 16 10 8 0 12 -4 9 -10z m920 -10 c3 -5 -1
-10 -10 -10 -9 0 -13 5 -10 10 3 6 8 10 10 10 2 0 7 -4 10 -10z m-1668 -11
c-9 -5 -22 -7 -27 -4 -6 3 -10 1 -10 -6 0 -8 -4 -9 -13 0 -10 8 -17 7 -25 -1
-9 -9 -12 -8 -12 5 0 14 10 17 53 17 40 -1 48 -3 34 -11z m133 -6 c0 -13 -3
-14 -12 -5 -15 15 -64 16 -73 2 -9 -15 -25 -12 -25 5 0 12 13 15 55 15 45 0
55 -3 55 -17z m-838 -8 c19 -26 -14 -85 -47 -85 -23 0 -45 30 -45 61 0 39 30
40 31 2 1 -21 3 -23 6 -8 2 11 6 25 8 32 4 13 37 12 47 -2z m1773 -22 c-13
-73 -33 -93 -130 -132 -49 -20 -100 -43 -113 -52 -21 -15 -19 -16 55 -22 146
-12 230 -53 267 -131 36 -75 11 -173 -54 -211 -33 -19 -51 -20 -335 -20 -325
0 -348 3 -382 54 -16 23 -18 54 -21 237 l-3 211 51 22 c28 12 57 20 63 18 9
-3 12 -59 12 -203 0 -109 4 -205 8 -211 6 -10 73 -13 277 -13 293 0 296 1 268
58 -33 65 -125 90 -276 73 -105 -11 -114 -8 -130 38 -14 39 8 79 78 144 80 75
277 174 349 176 22 1 23 -2 16 -36z m-1542 0 c-3 -27 -37 -63 -59 -63 -8 0
-12 5 -9 10 3 6 -3 10 -14 10 -16 0 -21 6 -21 28 0 39 7 43 60 40 40 -3 45 -6
43 -25z m1082 7 c3 -5 1 -10 -4 -10 -6 0 -11 5 -11 10 0 6 2 10 4 10 3 0 8 -4
11 -10z m47 -5 c0 -5 -5 -11 -11 -13 -6 -2 -11 4 -11 13 0 9 5 15 11 13 6 -2
11 -8 11 -13z m545 -7 c-3 -8 -6 -5 -6 6 -1 11 2 17 5 13 3 -3 4 -12 1 -19z
m416 -5 c-7 -2 -19 -2 -25 0 -7 3 -2 5 12 5 14 0 19 -2 13 -5z m-1295 -39 c33
-23 31 -86 -4 -113 -15 -12 -34 -21 -44 -21 -34 0 -70 39 -70 76 0 63 65 95
118 58z m1657 -4 c19 -8 19 -9 -2 -9 -12 -1 -25 4 -28 9 -7 12 2 12 30 0z
m-2255 -56 c0 -2 -7 -4 -15 -4 -8 0 -15 4 -15 10 0 5 7 7 15 4 8 -4 15 -8 15
-10z m584 -234 c-1 -191 -25 -220 -179 -220 -79 0 -85 -1 -76 -18 25 -46 -76
-124 -194 -150 -180 -40 -334 -10 -385 74 -27 43 -27 141 0 194 38 75 122 119
227 120 77 0 89 -14 23 -30 -167 -40 -202 -194 -58 -255 60 -24 182 -20 244 9
77 36 76 46 0 46 -77 0 -79 4 -41 81 l26 50 139 -3 140 -3 0 96 0 96 48 22
c85 38 87 35 86 -109z m1097 104 c101 -30 170 -130 153 -220 -9 -46 -59 -99
-109 -113 -76 -21 -235 -6 -235 23 1 33 29 101 41 97 33 -9 165 -11 178 -2 11
7 12 17 5 43 -12 43 -62 70 -121 66 l-43 -3 0 57 c0 74 24 83 131 52z m-2234
0 c-3 -3 -12 -4 -19 -1 -8 3 -5 6 6 6 11 1 17 -2 13 -5z m2673 -34 c0 -16 -42
-23 -51 -9 -6 10 -2 16 14 20 24 6 37 3 37 -11z m-130 -10 c0 -5 -10 -10 -22
-10 -19 0 -20 2 -8 10 19 13 30 13 30 0z m45 -33 c-20 -11 -29 -3 -21 19 5 13
9 14 22 3 14 -11 14 -13 -1 -22z m171 17 c10 -8 13 -13 7 -9 -7 3 -13 2 -13
-4 0 -5 6 -12 13 -15 6 -3 2 -3 -10 0 -13 3 -23 1 -23 -4 0 -7 -13 -6 -35 1
-28 8 -38 7 -52 -5 -23 -21 -65 -27 -70 -10 -3 7 5 12 21 12 14 0 26 4 26 9 0
8 16 16 70 31 39 12 45 11 66 -6z m-82 -42 c2 -4 -4 -9 -15 -9 -11 -1 -17 2
-14 8 7 11 22 12 29 1z m100 -72 c-52 -95 -73 -119 -101 -111 -22 6 -22 8 26
80 42 62 73 91 109 100 2 1 -14 -30 -34 -69z m-2778 -12 c59 -93 60 -95 29
-100 -24 -5 -30 2 -71 71 -49 84 -53 101 -24 101 13 0 34 -23 66 -72z m2535
49 c-10 -9 -11 -8 -5 6 3 10 9 15 12 12 3 -3 0 -11 -7 -18z m-2347 -32 c11 -8
17 -15 14 -15 -4 0 -14 -3 -24 -7 -11 -4 -15 -2 -11 4 4 6 -3 8 -18 5 -20 -3
-24 -1 -19 12 8 20 33 20 58 1z m2504 -182 c18 -8 35 -20 38 -25 4 -6 -3 -5
-15 1 -14 8 -21 8 -21 1 0 -5 -8 -10 -19 -10 -14 0 -25 -20 -50 -88 -17 -49
-40 -106 -51 -127 -18 -34 -18 -41 -5 -55 21 -23 19 -33 -6 -27 -19 5 -19 4
-6 -11 29 -35 27 -41 -7 -21 -118 69 -1088 96 -1594 44 -110 -12 -167 -14
-174 -7 -16 16 205 46 427 58 131 7 149 12 135 34 -6 9 -35 16 -87 20 l-78 5
115 8 c172 11 498 9 480 -3 -8 -5 -31 -10 -50 -10 -32 -1 -33 -2 -17 -14 18
-14 18 -14 0 -18 -18 -5 22 -8 342 -29 94 -6 240 -19 325 -29 150 -17 195 -19
131 -5 -40 9 -40 23 1 27 28 3 33 8 50 58 10 30 25 70 34 87 8 18 21 50 29 72
l13 39 -39 6 c-27 4 -37 10 -33 20 4 10 -3 16 -18 19 -13 3 9 2 47 0 39 -3 85
-12 103 -20z m-2126 -190 c54 -49 -17 -128 -75 -82 -32 24 -34 52 -7 79 24 24
57 26 82 3z m134 -8 c32 -49 -23 -104 -75 -75 -20 10 -26 27 -21 60 6 46 69
56 96 15z m933 -177 c15 -11 30 -14 40 -9 9 4 34 8 56 9 39 2 39 1 16 -12 -13
-7 -32 -11 -41 -9 -11 3 -26 -6 -38 -22 -19 -23 -27 -26 -56 -21 -26 5 -35 3
-40 -9 -4 -11 -12 -14 -27 -10 -12 4 -19 3 -16 -1 6 -10 -209 -9 -285 1 -27 3
-49 1 -53 -5 -8 -14 -42 -13 -51 2 -5 7 -3 8 6 3 8 -5 11 -3 8 6 -5 16 56 40
81 31 14 -5 14 -4 2 12 -12 15 -12 19 -1 26 7 5 25 7 39 5 14 -1 31 1 36 5 13
11 67 15 195 15 83 0 110 -4 129 -17z m-1200 -8 c-8 -5 -50 -11 -94 -14 -64
-5 -75 -4 -55 5 50 22 188 30 149 9z m1661 1 c22 -6 17 -11 -54 -50 -198 -109
-393 -160 -636 -168 -255 -8 -435 29 -640 132 -109 55 -136 74 -82 60 15 -4
34 -7 42 -7 8 0 47 -13 86 -28 378 -154 807 -143 1159 29 86 42 87 43 125 32z"/>
<path d="M4021 3053 c133 -142 234 -315 274 -471 13 -51 40 -90 53 -77 8 7
-27 122 -63 208 -47 109 -103 201 -182 297 -51 61 -73 80 -92 80 -25 0 -25 0
10 -37z"/>
<path d="M4186 2637 c3 -10 9 -15 12 -12 3 3 0 11 -7 18 -10 9 -11 8 -5 -6z"/>
<path d="M4078 2623 c6 -2 18 -2 25 0 6 3 1 5 -13 5 -14 0 -19 -2 -12 -5z"/>
<path d="M4151 2612 c-7 -2 10 -13 39 -23 61 -21 87 -15 59 15 -11 11 -19 15
-19 10 0 -11 -39 -13 -55 -3 -5 4 -16 4 -24 1z"/>
<path d="M4260 2550 c6 -11 15 -20 20 -20 12 0 9 22 -5 32 -19 14 -26 8 -15
-12z"/>
<path d="M4316 2295 c4 -8 8 -15 10 -15 2 0 4 7 4 15 0 8 -4 15 -10 15 -5 0
-7 -7 -4 -15z"/>
<path d="M3280 3130 c-13 -8 -13 -10 2 -10 9 0 20 5 23 10 8 13 -5 13 -25 0z"/>
<path d="M3201 3066 c-44 -46 -38 -52 14 -15 25 18 45 33 45 35 0 1 -6 4 -14
7 -7 3 -28 -9 -45 -27z"/>
<path d="M3234 2996 c-21 -19 -36 -37 -33 -40 3 -3 23 12 44 34 48 49 42 52
-11 6z"/>
<path d="M3045 3011 c-3 -5 -1 -12 5 -16 12 -7 30 2 30 16 0 12 -27 12 -35 0z"/>
<path d="M3012 2978 c-14 -14 -16 -38 -4 -38 10 0 42 33 42 43 0 11 -25 8 -38
-5z"/>
<path d="M2696 3024 c-20 -20 -35 -39 -31 -42 3 -3 22 11 42 31 21 20 35 39
32 42 -3 3 -23 -11 -43 -31z"/>
<path d="M2505 3039 c-4 -6 -5 -13 -2 -16 7 -7 27 6 27 18 0 12 -17 12 -25 -2z"/>
<path d="M3837 2933 c-4 -3 -7 -16 -6 -27 0 -19 1 -19 10 3 10 24 8 36 -4 24z"/>
<path d="M3856 2915 c-3 -9 -6 -22 -5 -28 0 -7 5 -1 10 12 5 13 8 26 5 28 -2
2 -6 -3 -10 -12z"/>
<path d="M3656 3023 c-9 -10 -7 -55 3 -49 12 8 21 45 11 51 -4 2 -10 2 -14 -2z"/>
<path d="M3691 3013 c-1 -6 -4 -20 -7 -30 -5 -17 -5 -17 6 0 6 10 9 23 6 30
-3 9 -5 9 -5 0z"/>
<path d="M4070 2494 c0 -8 5 -14 11 -14 5 0 7 -4 4 -10 -12 -19 26 -60 56 -60
16 0 29 4 29 9 0 11 -25 21 -51 21 -10 0 -19 5 -19 11 0 6 12 9 28 8 15 -2 33
0 40 5 7 4 19 0 30 -10 16 -17 17 -17 20 0 5 25 0 28 -78 41 -58 10 -70 10
-70 -1z m75 -14 c17 -7 15 -9 -12 -9 -18 -1 -33 4 -33 9 0 12 17 12 45 0z"/>
<path d="M4088 2393 c15 -3 22 -10 18 -19 -6 -15 24 -20 38 -7 11 12 56 14 56
3 0 -5 5 -10 10 -10 6 0 10 6 10 14 0 13 -75 27 -130 25 -25 -2 -25 -2 -2 -6z"/>
<path d="M4073 2284 c0 -9 12 -18 29 -21 15 -3 28 -12 28 -20 0 -8 -4 -11 -10
-8 -5 3 -10 1 -10 -4 0 -6 7 -11 15 -11 8 0 15 9 15 19 0 14 6 19 20 16 11 -2
20 0 20 6 0 14 28 11 33 -3 3 -7 6 -3 6 8 1 26 -22 34 -95 34 -39 0 -51 -3
-51 -16z"/>
<path d="M4070 2177 c0 -11 9 -21 20 -24 11 -3 20 -10 20 -15 0 -5 -4 -6 -10
-3 -5 3 -10 1 -10 -4 0 -7 26 -11 65 -11 l65 0 0 34 0 34 -75 4 c-67 3 -75 1
-75 -15z m57 -39 c-3 -8 -6 -5 -6 6 -1 11 2 17 5 13 3 -3 4 -12 1 -19z m20 0
c-3 -8 -6 -5 -6 6 -1 11 2 17 5 13 3 -3 4 -12 1 -19z m53 2 c0 -5 -9 -10 -20
-10 -11 0 -20 5 -20 10 0 6 9 10 20 10 11 0 20 -4 20 -10z"/>
<path d="M4072 2048 c2 -18 6 -32 11 -30 4 1 38 2 75 2 l69 0 -5 30 -4 30 -75
0 -74 0 3 -32z m38 -4 c0 -21 -17 -17 -23 5 -3 14 -1 18 9 14 8 -3 14 -11 14
-19z m97 -10 c-3 -3 -12 -4 -19 -1 -8 3 -5 6 6 6 11 1 17 -2 13 -5z"/>
<path d="M2001 1916 c-9 -11 -6 -14 18 -18 26 -4 28 -2 17 14 -13 22 -20 22
-35 4z"/>
<path d="M3258 3453 c17 -2 47 -2 65 0 17 2 3 4 -33 4 -36 0 -50 -2 -32 -4z"/>
<path d="M3013 3443 c20 -2 54 -2 75 0 20 2 3 4 -38 4 -41 0 -58 -2 -37 -4z"/>
<path d="M2803 3433 c20 -2 54 -2 75 0 20 2 3 4 -38 4 -41 0 -58 -2 -37 -4z"/>
<path d="M2583 3423 c9 -2 25 -2 35 0 9 3 1 5 -18 5 -19 0 -27 -2 -17 -5z"/>
<path d="M2663 3423 c9 -2 25 -2 35 0 9 3 1 5 -18 5 -19 0 -27 -2 -17 -5z"/>
<path d="M2473 3413 c15 -2 39 -2 55 0 15 2 2 4 -28 4 -30 0 -43 -2 -27 -4z"/>
<path d="M2308 3403 c18 -2 45 -2 60 0 15 2 0 4 -33 4 -33 0 -45 -2 -27 -4z"/>
<path d="M2163 3393 c15 -2 37 -2 50 0 12 2 0 4 -28 4 -27 0 -38 -2 -22 -4z"/>
<path d="M2043 3383 c9 -2 25 -2 35 0 9 3 1 5 -18 5 -19 0 -27 -2 -17 -5z"/>
<path d="M2032 2738 c-7 -7 -18 -13 -25 -13 -7 0 -11 -12 -9 -28 1 -15 -2 -27
-8 -27 -5 0 -10 -4 -10 -8 0 -5 7 -9 15 -9 8 0 11 5 8 10 -4 6 0 8 10 4 10 -3
17 -2 17 3 0 6 10 10 21 10 18 0 19 2 9 15 -7 8 -8 15 -3 15 5 0 9 9 9 20 0
23 -16 26 -34 8z"/>
<path d="M2045 2497 c3 -7 15 -13 26 -14 24 -2 23 0 -8 16 -18 9 -22 9 -18 -2z"/>
<path d="M4520 2446 c0 -2 7 -9 15 -16 12 -10 15 -10 15 4 0 9 -7 16 -15 16
-8 0 -15 -2 -15 -4z"/>
<path d="M2110 2160 c0 -5 5 -10 11 -10 5 0 7 5 4 10 -3 6 -8 10 -11 10 -2 0
-4 -4 -4 -10z"/>
<path d="M2880 1956 c7 -7 13 -7 20 0 6 6 3 10 -10 10 -13 0 -16 -4 -10 -10z"/>
<path d="M1606 1741 c-4 -5 3 -7 14 -4 23 6 26 13 6 13 -8 0 -17 -4 -20 -9z"/>
<path d="M3685 1201 c11 -10 40 -21 65 -24 l45 -5 -54 24 c-64 29 -82 31 -56
5z"/>
</g>
</svg>
